# 3ds Max Wavefront OBJ Exporter v0.97b - (c)2007 guruware
# File Created: 13.03.2018 13:48:28

mtllib DollarStack.mtl

#
# object Boss_Extrude1
#

v  3.0700 -0.0000 -1.3050
v  -3.0700 0.0000 -1.3050
v  3.0700 0.4300 -1.3050
v  -3.0700 0.4300 -1.3050
v  -3.0700 0.0000 1.3050
v  -3.0700 0.4300 1.3050
v  3.0700 -0.0000 1.3050
v  3.0700 0.4300 1.3050
# 8 vertices

vn -0.0000 0.0000 -2.5400
vn -2.5400 0.0000 0.0000
vn 0.0000 -0.0000 2.5400
vn 2.5400 -0.0000 -0.0000
vn 0.0000 2.5400 -0.0000
vn -0.0000 -2.5400 0.0000
# 6 vertex normals

vt 0.0072 0.2454 0.0000
vt 0.5255 0.2454 0.0000
vt 0.0072 0.2817 0.0000
vt 0.5255 0.2817 0.0000
vt 0.0179 0.0000 0.0000
vt 0.2064 0.0650 0.0000
vt 0.0072 0.0310 0.0000
vt 0.1956 0.0961 0.0000
vt 0.7427 0.0000 0.0000
vt 0.2109 0.1026 0.0000
vt 0.7473 0.0376 0.0000
vt 0.5269 0.1877 0.0000
vt 0.7472 0.1877 0.0000
vt 0.5269 0.2240 0.0000
vt 0.7472 0.2240 0.0000
vt 0.5255 0.7508 0.0000
vt 0.0072 0.7508 0.0000
vt 0.5255 0.5305 0.0000
vt 0.0072 0.5305 0.0000
vt 0.5255 0.5162 0.0000
vt 0.0072 0.5162 0.0000
vt 0.5255 0.2959 0.0000
vt 0.0072 0.2959 0.0000
# 23 texture coords

o Boss_Extrude1
g Boss_Extrude1
usemtl Material__25
s off
f 1/1/1 2/2/1 3/3/1 
f 3/3/1 2/2/1 4/4/1 
f 2/5/2 5/6/2 4/7/2 
f 4/7/2 5/6/2 6/8/2 
f 5/6/3 7/9/3 6/10/3 
f 6/10/3 7/9/3 8/11/3 
f 7/12/4 1/13/4 8/14/4 
f 8/14/4 1/13/4 3/15/4 
f 3/16/5 4/17/5 8/18/5 
f 8/18/5 4/17/5 6/19/5 
f 2/20/6 1/21/6 5/22/6 
f 5/22/6 1/21/6 7/23/6 
# 12 faces

#
# object Split1_1_
#

v  0.7551 0.4400 1.3150
v  0.7551 0.4400 -1.3150
v  0.7551 -0.0100 1.3150
v  0.7551 -0.0100 -1.3150
v  1.0300 -0.0100 1.3150
v  1.0300 -0.0100 -1.3150
v  1.0300 0.4400 1.3150
v  1.0300 0.4400 -1.3150
# 8 vertices

vn -2.5400 0.0000 0.0000
vn -0.0000 -2.5400 0.0000
vn 2.5400 -0.0000 -0.0000
vn 0.0000 -0.0000 2.5400
vn -0.0000 0.0000 -2.5400
vn 0.0000 2.5400 -0.0000
# 6 vertex normals

vt 0.4675 0.2329 0.0000
vt 0.2454 0.2329 0.0000
vt 0.4675 0.1949 0.0000
vt 0.2454 0.1949 0.0000
vt 0.7254 0.5305 0.0000
vt 0.7486 0.5305 0.0000
vt 0.7254 0.7526 0.0000
vt 0.7486 0.7526 0.0000
vt 0.5269 0.1335 0.0000
vt 0.7490 0.1335 0.0000
vt 0.5269 0.1715 0.0000
vt 0.7490 0.1715 0.0000
vt 0.7017 0.2762 0.0000
vt 0.6785 0.2762 0.0000
vt 0.7017 0.2382 0.0000
vt 0.6785 0.2382 0.0000
vt 0.1913 0.0072 0.0000
vt 0.2145 0.0072 0.0000
vt 0.1913 0.0452 0.0000
vt 0.2145 0.0452 0.0000
vt 0.7486 0.5180 0.0000
vt 0.7254 0.5180 0.0000
vt 0.7486 0.2959 0.0000
vt 0.7254 0.2959 0.0000
# 24 texture coords

o Split1_1_
g Split1_1_
usemtl Material__26
s off
f 9/24/7 10/25/7 11/26/7 
f 11/26/7 10/25/7 12/27/7 
f 13/28/8 11/29/8 14/30/8 
f 14/30/8 11/29/8 12/31/8 
f 13/32/9 14/33/9 15/34/9 
f 15/34/9 14/33/9 16/35/9 
f 15/36/10 9/37/10 13/38/10 
f 13/38/10 9/37/10 11/39/10 
f 14/40/11 12/41/11 16/42/11 
f 16/42/11 12/41/11 10/43/11 
f 16/44/12 10/45/12 15/46/12 
f 15/46/12 10/45/12 9/47/12 
# 12 faces

#
# object Mirror2
#

v  -0.7551 0.4400 -1.3150
v  -0.7551 0.4400 1.3150
v  -0.7551 -0.0100 -1.3150
v  -0.7551 -0.0100 1.3150
v  -1.0300 -0.0100 1.3150
v  -1.0300 -0.0100 -1.3150
v  -1.0300 0.4400 1.3150
v  -1.0300 0.4400 -1.3150
# 8 vertices

vn 2.5400 -0.0000 -0.0000
vn -0.0000 -2.5400 0.0000
vn -2.5400 0.0000 0.0000
vn 0.0000 -0.0000 2.5400
vn -0.0000 0.0000 -2.5400
vn 0.0000 2.5400 -0.0000
# 6 vertex normals

vt 0.2293 0.2329 0.0000
vt 0.0072 0.2329 0.0000
vt 0.2293 0.1949 0.0000
vt 0.0072 0.1949 0.0000
vt 0.5413 0.2959 0.0000
vt 0.5646 0.2959 0.0000
vt 0.5413 0.5180 0.0000
vt 0.5646 0.5180 0.0000
vt 0.2293 0.1824 0.0000
vt 0.0072 0.1824 0.0000
vt 0.2293 0.1444 0.0000
vt 0.0072 0.1444 0.0000
vt 0.0304 0.0849 0.0000
vt 0.0072 0.0849 0.0000
vt 0.0304 0.0469 0.0000
vt 0.0072 0.0469 0.0000
vt 0.0469 0.0577 0.0000
vt 0.0701 0.0577 0.0000
vt 0.0469 0.0957 0.0000
vt 0.0701 0.0957 0.0000
vt 0.5646 0.7526 0.0000
vt 0.5413 0.7526 0.0000
vt 0.5646 0.5305 0.0000
vt 0.5413 0.5305 0.0000
# 24 texture coords

o Mirror2
g Mirror2
usemtl Material__26
s off
f 17/48/13 18/49/13 19/50/13 
f 19/50/13 18/49/13 20/51/13 
f 20/52/14 21/53/14 19/54/14 
f 19/54/14 21/53/14 22/55/14 
f 23/56/15 24/57/15 21/58/15 
f 21/58/15 24/57/15 22/59/15 
f 18/60/16 23/61/16 20/62/16 
f 20/62/16 23/61/16 21/63/16 
f 19/64/17 22/65/17 17/66/17 
f 17/66/17 22/65/17 24/67/17 
f 17/68/18 24/69/18 18/70/18 
f 18/70/18 24/69/18 23/71/18 
# 12 faces

#
# object Mirror3
#

v  0.7551 0.4400 -1.3150
v  0.7551 0.4400 1.3150
v  0.7551 -0.0100 -1.3150
v  0.7551 -0.0100 1.3150
v  -0.7551 0.4400 1.3150
v  -0.7551 -0.0100 1.3150
v  -0.7551 -0.0100 -1.3150
v  -0.7551 0.4400 -1.3150
# 8 vertices

vn 2.5400 -0.0000 -0.0000
vn 0.0000 -0.0000 2.5400
vn -0.0000 -2.5400 0.0000
vn -0.0000 0.0000 -2.5400
vn 0.0000 2.5400 -0.0000
vn -2.5400 0.0000 0.0000
# 6 vertex normals

vt 0.4675 0.1824 0.0000
vt 0.2454 0.1824 0.0000
vt 0.4675 0.1444 0.0000
vt 0.2454 0.1444 0.0000
vt 0.4270 0.1318 0.0000
vt 0.2995 0.1318 0.0000
vt 0.4270 0.0938 0.0000
vt 0.2995 0.0938 0.0000
vt 0.5810 0.5305 0.0000
vt 0.7085 0.5305 0.0000
vt 0.5810 0.7526 0.0000
vt 0.7085 0.7526 0.0000
vt 0.5377 0.2382 0.0000
vt 0.6652 0.2382 0.0000
vt 0.5377 0.2762 0.0000
vt 0.6652 0.2762 0.0000
vt 0.7085 0.5180 0.0000
vt 0.5810 0.5180 0.0000
vt 0.7085 0.2959 0.0000
vt 0.5810 0.2959 0.0000
vt 0.7490 0.1174 0.0000
vt 0.5269 0.1174 0.0000
vt 0.7490 0.0794 0.0000
vt 0.5269 0.0794 0.0000
# 24 texture coords

o Mirror3
g Mirror3
usemtl Material__27
s off
f 25/72/19 26/73/19 27/74/19 
f 27/74/19 26/73/19 28/75/19 
f 26/76/20 29/77/20 28/78/20 
f 28/78/20 29/77/20 30/79/20 
f 28/80/21 30/81/21 27/82/21 
f 27/82/21 30/81/21 31/83/21 
f 27/84/22 31/85/22 25/86/22 
f 25/86/22 31/85/22 32/87/22 
f 25/88/23 32/89/23 26/90/23 
f 26/90/23 32/89/23 29/91/23 
f 29/92/24 32/93/24 30/94/24 
f 30/94/24 32/93/24 31/95/24 
# 12 faces

